<svg xmlns="http://www.w3.org/2000/svg" viewBox="0 0 1190.71 435.89"><defs><style>.cls-1{fill:#080504;}.cls-2{fill:#060606;}.cls-3{fill:#060202;}.cls-4{fill:#6cd2ee;}.cls-5{fill:#b52b2c;}.cls-6{fill:#f5a74f;}.cls-7{fill:#cb3017;}.cls-8{fill:#c99f6d;}.cls-9{fill:#f1a954;}.cls-10{fill:#dfa765;}.cls-11{fill:#d3a167;}.cls-12{fill:#53d4fb;}.cls-13{fill:#0c0707;}.cls-14{fill:#f9a84c;}.cls-15{fill:#f9a84b;}.cls-16{fill:#de2020;}.cls-17{fill:#fdfdfd;}.cls-18{fill:#110705;}.cls-19{fill:#e9a75d;}</style></defs><g id="레이어_2" data-name="레이어 2"><g id="레이어_1-2" data-name="레이어 1"><path class="cls-1" d="M319.56,58.92q4.11,15.48,8.22,31a15.62,15.62,0,0,0,1.47,4.06c15.92,26.28,18.31,53.64,6.47,82.07-4.71,11.33-9.67,22.55-14.17,33,7.88,5.33,16.62,10.4,24.32,16.74,5.7,4.68,9.43,11.79,15.18,16.39,5.57,4.45,13.14,6.35,18.87,10.66a171.7,171.7,0,0,1,22.26,19.91c9.42,10.1,8.38,18.39-2.36,27.15-2.67,2.18-5.74,3.87-8.95,6a282.45,282.45,0,0,1,1.83,101.2c-4.49,3.61-9.3,2.1-14.09.87q1.44-9,2.87-18c2.59-19.06,1.71-38.1.3-57.21-2.33-31.56-15-59-32.8-84.35-8.12-11.54-18.32-21.16-32.31-25.52-2.41-.75-5.58-1.47-7.63-.53a10.51,10.51,0,0,1-10.36-.47l-2-2.92c-.72-4.41.51-7.64,4.83-9.82,2.64-1.34,5.73-3.24,6.94-5.71,6-12.37,12.13-24.76,17-37.61,7.92-20.93,5.42-41.34-4.92-61.09-3-5.67-6.13-9.14-13-6.86a12.26,12.26,0,0,1-5.46,0c-13.7-2.17-27.07-5.61-38.89-13.14-16-10.21-31.14-21.62-42.77-37a4.86,4.86,0,0,0-3.25-1.7c-33.31-1.74-64.2,4.88-90.13,27.28-18.73,16.16-28.35,37.22-31.44,61.5q0,13.29-.07,26.59c1.38,7.13,2.14,14.46,4.29,21.36a74.67,74.67,0,0,0,17.1,29.38c6.44,6.85,15.2,3.42,22.19,7.34,2.81,1.57,6.43,1.74,8.34,5l.9.62c0,.2,0,.4.05.6-3.71.45-5.36,2.49-4.84,6.23-2.78.23-5.66,1-8.31.56-4.36-.77-7.9.2-11.85,2.09-23,11-40.47,28.39-55.71,48.21C51.4,304,43.12,328.18,41.55,354.74l.21,53.18-13.53-.85c-1.64-30.8-2.35-61.52,7.68-91.89-1.71.19-2.81.23-3.88.45A60.76,60.76,0,0,1,25.71,317c-5.54.47-11.33.82-15-4.37s-.83-10.21,1.58-15c9.28-18.35,24.53-30.84,41.57-41.3,7.44-4.57,12.08-3.56,17.2,2,12.4-12.72,25.16-25,41-32.37C80.62,194,75,155.85,86.58,114.76c13.36-47.21,47.73-71.62,94.49-79.62,13.79-2.36,28.14-1.37,42.23-2a62.4,62.4,0,0,0,7.78-1.06c7.83-1.31,15.65-2.68,23.47-4,2,2.38,3.51,5.33,5.94,7,15.17,10.57,31.23,19.44,49.38,23.8C312.93,59.58,316.32,58.93,319.56,58.92ZM51.74,282.06l0,.05L62,268.87l-1.37-1.46c-7.11,3.77-13.15,9.1-19.14,14.51l-7.88,7.83L23.7,302.94H40.88l4.85-10.88,0,.05Zm335.5,11a69.56,69.56,0,0,0,6.54-5.84c.69-.8,1-3.1.37-3.71-4.66-4.9-9.57-9.55-14.41-14.28l-1.94,1.32Z"/><path class="cls-2" d="M490.13,259.72c3.28,1.41,6.53,2.93,9.87,4.2,5.42,2.07,7.5,5.09,6,9.12s-4.93,5.09-10.43,3.39c-10-3.09-17.79-9.39-24.72-17.05-10.77-11.91-16.66-26.62-23.4-40.78-10.35-21.73-18.34-44.26-18.56-68.74-.24-27.46,5-53.3,23.82-74.68,26.65-30.29,70.43-27.53,92.66,5.74,12.14,18.18,9.94,43.56-5.37,61-2.94,3.36-6.12,6.5-9.34,9.9a10.15,10.15,0,0,0,1.86.94c20.66,4.92,27.17,24,22.5,41.06-5.39,19.72-18.38,34-33.33,46.76A113.5,113.5,0,0,1,490.13,259.72ZM442.05,145.21c.28,5.17.21,10.2.87,15.13,4,30.08,17.21,56.64,32,82.56,2,3.45,4.66,4.45,8.32,3.51a52.26,52.26,0,0,0,6.26-1.63c16.2-6.4,29-17.32,39.93-30.6,7-8.57,12.73-17.84,13.69-29.34.73-8.85-3.37-16.07-11.72-18.54s-16.76-2.56-25.2,1.4c-7,3.28-14.64,5.16-22,7.54-4.15,1.34-7.89.49-9.58-3.77-1.84-4.62,1-7.8,4.84-9.61,5.39-2.52,10.86-5.58,16.61-6.51,12.45-2,21.51-9.21,29.95-17.53,13.53-13.32,17.59-31.2,10.71-45.44A44.29,44.29,0,0,0,492.1,67.7c-15.18,1.51-25.66,10.49-34.1,22C445.94,106.22,442.8,125.52,442.05,145.21Z"/><path class="cls-2" d="M1168.91,255.58c4.86.55,9.17.89,13.44,1.57,5.85.93,9.15,4.57,8.19,8.66-1,4.27-6.08,6.23-11.49,4.95a93.23,93.23,0,0,0-13.22-1.95,4.22,4.22,0,0,0-3.23,2.05c-2.89,6.15-5.51,12.43-8.32,18.88,4.06,1.39,8,2.6,11.81,4.13a18.13,18.13,0,0,1,5.46,3.32c2.92,2.7,3.58,6.11,1,9.35s-5.7,2.89-9.32,1.08c-4.65-2.32-9.67-3.91-15.09-6-5.47,11.06-10.66,21.23-15.54,31.55-3.18,6.71-9.31,10.41-16.55,9.26-4.2-.67-5.49-4-6.2-7.51-2.7-13.53-5.3-27.07-7.93-40.61-2.92-15-5.87-30-8.73-45-2.35-12.41,1.81-19.57,14.4-20.52a367.42,367.42,0,0,1,49.77-.42c13.43.81,17.52,8.71,13.34,21.61C1170.18,251.68,1169.63,253.39,1168.91,255.58ZM1105.4,241.8c3.32,16.57,6.45,32.16,9.43,47,2.83-.73,5.46-1.91,8.12-2,4.79-.14,9.61.47,14.41.57,1.27,0,3.32-.29,3.71-1.08,3-6.15,5.69-12.46,9-19.79-8.47.82-15.76,1.18-22.91,2.35-4.18.69-7.41.36-9-3.78s.6-6.79,4-8.47a17.25,17.25,0,0,1,6.16-1.69c6-.47,12-.78,17.92-.89,10.09-.19,10.09-.1,12.54-10,.12-.47.13-1,.28-2.21C1141.34,238.72,1123.79,240.85,1105.4,241.8Zm15.78,83.7c4.69-9.15,8.7-17,13.17-25.69h-18.2C1117.7,307.73,1119.29,315.82,1121.18,325.5Z"/><path class="cls-2" d="M716.34,154.1c-6.74-16.89-22-24.27-42.48-19.8a87.8,87.8,0,0,0-9,2.77c-3.57,1.19-5.91,3-5.52,7.52.33,3.81-2.29,6.28-6.14,6.49s-6.06-2-6.75-5.86c-1.39-7.92,1-13.26,8.1-17.7,26.29-16.39,59.22-7.6,73.42,19.85,5.68,11,9.5,22.67,10,35.22.26,6.16-1.24,8.26-6.93,10.38-1.34.5-2.39,2-3.42,3.11-13.07,14.67-28.67,25.11-48.78,25.76-19.24.61-29.51-16.24-20.52-33.23,8.84-16.71,22.53-28.33,40.88-33.49C704.53,153.61,710.52,154.38,716.34,154.1ZM680.52,209c8.89-.64,17.12-5.32,25-10.62,5.75-3.88,11.39-7.23,12.39-15.92,1.11-9.65-5.16-17.61-14.6-14.94-14.61,4.12-25.53,13.35-32.93,26.39C665.36,202.69,669.44,208.87,680.52,209Z"/><path class="cls-2" d="M977.46,349.86c4.12,12.77,13.42,18.91,25,21.93,11.15,2.91,22.14,1.87,32.37-3.83a39.39,39.39,0,0,0,5.87-4.47c3.51-3,7.18-3.24,9.78-.39,3,3.27,2.64,6.48-.34,9.71-7.15,7.76-16.56,11.23-26.44,12.78-15.83,2.5-30.77-.33-43.85-10.34-15.09-11.55-20.31-29.3-13.78-47.15,8.85-24.17,26.06-37.63,51.77-39.24a33.89,33.89,0,0,1,16.26,3.52c12.11,6,14.68,19.94,5.22,30.79-13.82,15.85-31.63,25.05-52.63,27.55C984,351.05,981.12,350.24,977.46,349.86Zm39.69-48.07c-15.53,1.74-28.77,8.67-35.81,24.6-1.26,2.86-1.07,6.36-1.55,9.57,3.19.41,6.51,1.57,9.57,1.1,13.85-2.14,25.45-9.2,36-17.95,3.51-2.9,7.78-6.72,5.75-11.74C1029,302.14,1023.36,301.89,1017.15,301.79Z"/><path class="cls-2" d="M863.71,313.88c-7,1.17-13.48,2.31-20,3.33-5.51.86-9.11-1.39-9.75-5.92-.55-4,2.61-6.54,8.2-7.33,7.24-1,14.46-2.25,21.61-3.77a6.28,6.28,0,0,0,3.66-3.61c2.58-7,4.37-14.33,7.31-21.16,2.13-5,5.37-9.51,8.59-13.89,2.29-3.11,5.74-4.25,9.13-1.46s3.55,6.48.8,9.71c-6.62,7.75-8.8,17.35-12.39,27.64,5.86-1.23,11-2,16-3.41,11.61-3.39,23.2-6.92,34.66-10.79,5.63-1.9,9.57-1.16,11.33,3.25,1.57,3.93-.69,7.68-6.49,9.32-18.35,5.18-36.8,10-55.17,15.18-1.58.44-3.87,1.88-4.07,3.14-1.87,11.71-3,23.48.7,35.11,5.14,16.23,18.56,26.68,33.29,25.68,8.06-.54,15-3.93,21.19-9.07,1.85-1.53,4.34-3.42,6.4-3.27s5.32,2.21,5.91,4.1c.66,2.11-.24,5.89-1.88,7.38-22.77,20.65-52.65,18.56-70-5.61-10.39-14.5-11.77-31.1-9.85-48.25C863.16,318.24,863.42,316.3,863.71,313.88Z"/><path class="cls-2" d="M770.58,130.53c-9.64,2.13-19.12,4.51-28.72,6.15a10.39,10.39,0,0,1-7.93-2.46c-3.79-3.79-.75-9.26,5-10.42,10.54-2.14,21-4.6,32.68-7.19,0-15.66-.26-30.62.15-45.55.14-5.22,1.61-10.47,3-15.55,1.07-3.81,4.56-5.56,8.21-5.16a8.54,8.54,0,0,1,5.76,3.73c.91,1.61.24,4.38-.36,6.46-.81,2.87-3,5.52-3.22,8.35-.89,14.08-1.31,28.19-1.92,42.84,9.62-2.53,18.4-4.86,27.19-7.15a32.87,32.87,0,0,1,4.41-.8c4.75-.52,8,1.62,8.58,5.49.51,3.66-2,6.43-6.39,7.54-9.81,2.48-19.56,5.2-29.38,7.65-2.7.68-3.76,1.75-3.61,4.73.77,14.76,3.32,29.16,9.89,42.45a55.34,55.34,0,0,0,10.88,15.21c7.26,7,13.91,6,20.33-2a28.43,28.43,0,0,1,4.67-5.1c3.36-2.47,7.48-1.79,9.66,1.41,2.34,3.44,1.61,6.48-1.46,9.25-2.2,2-4.06,4.37-6.18,6.47-9.73,9.58-22.52,10.25-33.44,2a52.41,52.41,0,0,1-15.88-20.17,117.82,117.82,0,0,1-11-42.2c-.11-1.66-.31-3.31-.53-5A3.77,3.77,0,0,0,770.58,130.53Z"/><path class="cls-2" d="M729.37,281.19a481.53,481.53,0,0,1-16.64,96.74,60.05,60.05,0,0,1-4.25,10.62c-5.53,11.07-15.73,14.29-25.56,6.79a97.69,97.69,0,0,1-19.43-19.84C647,352.86,638.35,326.62,630.92,300a27.27,27.27,0,0,1-.61-7c0-4.16,2.18-6.68,6.26-6.94s6.2,2.29,6.82,5.95c4.25,25.06,13.83,48.19,26.77,69.8,4.93,8.24,12.32,15.14,19.23,22,3.78,3.76,6.07,3.11,7.65-2,3.73-12,7.59-24.12,9.83-36.47,3.6-19.94,6.27-40.07,8.61-60.21.74-6.3-.61-12.9-1.45-19.3-.74-5.54.68-9.12,4.75-10,4.31-.92,7.09,1.28,8.08,7.08C728,269.81,728.77,276.72,729.37,281.19Z"/><path class="cls-2" d="M735.15,346.89c1.53-15.3,5.72-29.91,21.37-35.93,11.15-4.3,23.13-7.8,35.76-6.06a35.62,35.62,0,0,1,30.22,31.74c2.61,26.84-20.35,53.85-47.27,55.61-14.79,1-28.64-8.67-35.56-24.88a49.06,49.06,0,0,1-2.92-9C736,354.67,735.68,350.84,735.15,346.89Zm22.91-21.78c-14.54,13.74-11.43,41.26,5.58,51.25,4.72,2.78,9.81,3.79,14.88,2.26,14.15-4.29,24.79-12.78,29.32-27.36,3.15-10.12,2.53-19.9-5.68-27.71-7.46-7.09-16.51-6.84-25.74-4.45-2.93.76-5.28,1.76-5.3,5.84,0,1.73-2.71,4.39-4.63,4.89s-4.47-1.06-6.57-2.06C759.08,327.37,758.68,326,758.06,325.11Z"/><path class="cls-2" d="M640,171.72c-.6,13.25-3.83,25.58-12.45,36.08-9.28,11.31-20.79,18-35.72,15.07s-23.87-13.31-28.42-27.24c-5.1-15.6-2-30.23,7.36-43.55,3.82-5.47,9.66-10.24,15.83-8.67,11,2.81,21.82-.94,32.7,1.4C633.61,147.88,641.12,156.94,640,171.72Zm-60.78-5.39c-.31-.44-.63-.87-.94-1.3-4,8.54-5.37,17.5-2.44,26.56,2.82,8.75,8.23,15.81,17.62,18.16,9,2.25,16.33-1.64,22.17-8.25,9-10.17,12.12-22.35,10.79-35.63-.22-2.22-2.25-5.31-4.22-6.14-11.24-4.77-22.44-2.85-33.35,1.55A105.18,105.18,0,0,0,579.19,166.33Z"/><path class="cls-3" d="M258.59,24.78c4.49-7.24,8.11-15.09,15.46-20.22,7.19-5,14.92-5.89,22.72-2.63,8.83,3.69,17.76,7.5,25.8,12.6,9.26,5.89,10.76,13.87,6,23.86-2.57,5.4-5.52,10.62-8.3,15.91a117,117,0,0,1-38-13.69C274,35.9,266.46,30.1,258.59,24.78Z"/><path class="cls-4" d="M378.61,407.93c4.79,1.23,9.6,2.74,14.09-.87,10,.25,20,0,29.9.92,8.33.78,11.58,5.87,11.06,14.72-.39,6.43-6.46,12.63-12.93,13.16-.83.07-1.67,0-2.5,0h-402c-7.78,0-12.78-3.5-15.4-10.63-2.77-7.5,1.45-15.78,9.5-17.19,5.84-1,11.91-.71,17.88-1l13.53.86ZM27,410.61c-3.2.44-6.63,2-8.08.9-4-3-7-.66-10,.77-4.23,2-5.33,8.2-3.65,12.55,3.35,8.69,11.28,8.92,18,8.93q193.49.44,387,.13c4.65,0,9.32-1.26,13.95-2.07.61-.11,1.19-1,1.58-1.65,1.79-2.94,3.5-5.92,5.49-9.3a6.42,6.42,0,0,1-1-1.51c-3.43-8.54-4.63-9.36-14-9.35H361.77q-151.5,0-303,.07c-5.36,0-10.72.94-16.34,1.48l-8.1-1.67-.45,1.67,3.3,2.37C33.32,413.62,28.53,416,27,410.61Z"/><path class="cls-2" d="M1096.55,390.6c.27-11.32,5.72-19.28,15.13-22.09s21.53,5.45,21.89,15.36a26.34,26.34,0,0,1-6.71,19.23c-5.33,5.88-13.34,7.25-21,4C1099.36,404.39,1096.34,399,1096.55,390.6Zm13,.59c-.4,2.65.7,4.41,4,4.38,3.74,0,7.22-4.7,6.73-9.92-.12-1.22-2.35-3-3.75-3.18C1111.89,382,1109.65,384.94,1109.6,391.19Z"/><path class="cls-5" d="M258.59,24.78C266.46,30.1,274,35.9,282.25,40.61a117,117,0,0,0,38,13.69c-.24,1.54-.49,3.08-.73,4.62-3.24,0-6.63.66-9.69-.07-18.15-4.36-34.21-13.23-49.38-23.8-2.43-1.69-4-4.64-5.94-7Z"/><path class="cls-6" d="M298.68,221.88a10.51,10.51,0,0,0,10.36.47c2-.94,5.22-.22,7.63.53,14,4.36,24.19,14,32.31,25.52,17.83,25.35,30.47,52.79,32.8,84.35,1.41,19.11,2.29,38.15-.3,57.21-.63,2.66-1.61,5.3-1.82,8-.45,5.58-2.29,8-6.93,8q-162.15,0-324.3,0c-5.59,0-6.7-1.09-6.73-6.73-.08-14.82-.1-29.64-.15-44.46,1.57-26.56,9.85-50.78,26.11-71.92,15.24-19.82,32.73-37.17,55.71-48.21,3.95-1.89,7.49-2.86,11.85-2.09,2.65.48,5.53-.33,8.31-.57,13.84,5.07,28.17,4.48,42.37,3.91.92,5.48,1.52,11.27,2.92,16.86,2.07,8.32,7.12,10.12,13.93,5.17,6.44-4.67,12.84-9.42,18.91-14.55,2.42-2.05,3.87-2,6.39-.43,5.44,3.47,10.84,7.31,16.79,9.59,10.89,4.18,14.64.48,12.51-10.95-.67-3.59-.47-7.35-.7-11.49a53.22,53.22,0,0,0,6.15,0c10.35-1.29,20.71-2.52,31-4.19C295.59,225.54,297.06,223.25,298.68,221.88ZM287.5,296.17c-1.32-3.83-3.32-6.74-8.05-6v0c-2.28-2.08-4.37-4.43-6.88-6.16-5.08-3.51-10.27-7-17-6l0,0-6.19-2c-4.86-.75-9.74-1.48-14.6-2.26C208,269.47,183,275,159.51,287.84c-12.89,7-23.39,16.75-30.13,30.08-1.3.9-3.06,1.51-3.78,2.74-1.29,2.19-1.32,5.39-3,7-3.25,3.14-3.25,6.63-2.83,10.48h0c-.73.86-1.93,1.63-2.12,2.59-.92,4.62-.79,9.59-2.46,13.88-3.54,9.1-1.3,17.78.89,26.44.64,2.5,3.07,5.66,5.37,6.42a100.19,100.19,0,0,0,19.74,4.37c10.13,1.15,20.35,1.67,30.55,2.09,24.64,1,49.28-.43,74,1.58,19.8,1.61,39.94-.86,59.93-1.49,2.66-.09,5.58.66,7.93-.2,2.85-1,6.34-2.83,7.54-5.28,2.22-4.56,4.07-9.83,4.12-14.82.1-9.48-1.16-19-2-28.46,0-.43-1.27-.75-1.95-1.13h.06c-.63-3.28-.52-7-2.05-9.76-2.79-5.05-6.56-9.57-9.91-14.31l0,0c1.65-5.14-3.26-6.87-5.4-10-.81-1.18-2.9-1.49-4.4-2.19a.35.35,0,0,1-.33-.43c0-4.47-7-11.15-11.94-11.4Z"/><path class="cls-6" d="M147.42,224.51c-1.91-3.26-5.53-3.43-8.34-5-7-3.92-15.75-.49-22.19-7.34a74.67,74.67,0,0,1-17.1-29.38c-2.15-6.9-2.91-14.23-4.29-21.36q0-13.31.07-26.59c3.09-24.28,12.71-45.34,31.44-61.5,25.93-22.4,56.82-29,90.13-27.28a4.86,4.86,0,0,1,3.25,1.7c11.63,15.37,26.73,26.78,42.77,37,11.82,7.53,25.19,11,38.89,13.14a12.26,12.26,0,0,0,5.46,0c6.87-2.28,10,1.19,13,6.86,10.34,19.75,12.84,40.16,4.92,61.09-4.86,12.85-11,25.24-17,37.61-1.21,2.47-4.3,4.37-6.94,5.71-4.32,2.18-5.55,5.41-4.83,9.82l-15,2.84c.93-4.5,5.46-3,8-4.8.66-1.67,1.33-3.33,2-5l2-2,10-10c4.89-.56,7.67-4.32,5.48-8.48-1.94-3.69-.18-4.19,2.45-5.72,1.85-1.09,2.75-3.81,4.07-5.8.56-1,1.67-2.13,1.59-3.12-.32-3.64-1-7.26-1.59-10.88l6-2,2-8c.37-1.37.75-2.75,1.1-4.12,1.24-4.78,4.36-9.1,1.15-14.64-1.81-3.13-1.57-7.45-2.25-11.24-.66-4.07-1.68-8.12-1.89-12.21-.15-3.09-1.25-4.14-4.11-3.79-.33-1.33-.66-2.67-1-4L314,102.63c-2.77.62-5,1.78-6.84,1.4-4.83-1-9.48-2.77-14.27-4-6-1.56-12.25-2.62-18.21-4.44-3-.91-5.62-3-9.22-5l-2.61,1.1.63-1.44L250.62,81l-7-3h0l-2-4c-1.58-.83-3.75-1.26-4.64-2.56-2.56-3.74-4.74-7.4-9.89-3.53-.33.25-1,.07-1.46.09l2-4,1.5-1.26-2.5-.74-5-2c-2.93.35-4.42-.71-4-3.88.88-6.1.85-6.34-5.68-6.07-11.45.48-22.9,1.29-34.35,2l-4,2-9,2-7,2-2,2c-2.26.67-4.5,1.8-6.79,1.89-3.13.12-3.35,1.8-3.21,4.11-2.85,1.52-5.73,3-8.55,4.57-1.93,1.08-3.8,2.27-5.63,3.51A12.26,12.26,0,0,0,129.63,76h0c-.66.67-1.33,1.33-2,2h0L125,84c-1.53.58-6.21-1.59-5.37,4v3l-3,2-5,6c-1.28,1.46-3.57,2.86-3.67,4.4-.33,5.67-3.22,10.15-5.49,15-.92,2-.42,4.72-.2,7.08a54.82,54.82,0,0,0,1.36,6.5l-5,6c-.33,1-.65,2-1,3l2,18v3l2,2c0,4.66-.12,9.33.08,14,.07,1.45,1,2.87,1.6,4.3l4.45-1.81c-.27,2.32-.12,4.53-.81,6.43-1.8,4.95.41,9.55,5.68,11.1-.25,5.67,2.81,8.69,8,10,.61.59,1.65,1.78,1.78,1.69,5.94-4.26,5.15.17,4.69,4.06,6.71.77,13.24,1.24,19.63,2.43,1.83.34,4.49,2.67,4.66,4.3.43,4.24,2,6.14,6.24,5.52,7.18.54,14.36,1,21.53,1.65,3.21.27,6.36-4,4.82-8,3.09-.73,6.42-.75,8.87-2.24,5.57-3.36,9.91,1,14.71,1.78,4.46.73,8.66,3,13,4.4.51.16,1.4-.67,2-1.13,5.3-3.77,10.57-7.58,15.9-11.3a13.62,13.62,0,0,1,3.09-1.17h2c1.25.67,2.48,1.37,3.75,2s2.84,1.31,4.26,2c-5.78-2.4-10.92-.35-15.36,3-4.72,3.57-8.86,7.87-12.66,11.32-8-2.58-15.62-5.28-23.37-7.48-9.5-2.68-12.86-.33-14.12,9.11-7.77,0-15.58.5-23.28-.18-4.91-.43-9.65-2.61-14.47-4,0-.2,0-.4-.05-.6Z"/><path class="cls-7" d="M148.37,225.73c4.82,1.4,9.56,3.58,14.47,4,7.7.68,15.51.18,23.28.18,1.26-9.44,4.62-11.79,14.12-9.11,7.75,2.2,15.37,4.9,23.37,7.48,3.8-3.45,7.94-7.75,12.66-11.32,4.44-3.36,9.58-5.41,15.36-3l0,0,2,2,0,0c.63,1,1.26,2,1.88,3.06l0,0c.18,1.55.36,3.1.64,5.57l20.68-2.57,4.79-.29,15-2.84,2,2.92c-1.62,1.37-3.09,3.66-4.89,4-10.28,1.67-20.64,2.9-31,4.19a53.22,53.22,0,0,1-6.15,0c.23,4.14,0,7.9.7,11.49,2.13,11.43-1.62,15.13-12.51,10.95-6-2.28-11.35-6.12-16.79-9.59-2.52-1.6-4-1.62-6.39.43-6.07,5.13-12.47,9.88-18.91,14.55-6.81,4.95-11.86,3.15-13.93-5.17-1.4-5.59-2-11.38-2.92-16.86-14.2.57-28.53,1.16-42.37-3.91C143,228.22,144.66,226.18,148.37,225.73Zm48.7-4.42c-6.74.68-11.3,8.29-9.17,15.05.87,2.76,1.11,5.72,1.74,8.56.76,3.47,1.12,7.17,2.6,10.31s4.36,4,7.48,1.6c5.6-4.22,11-8.7,16.87-12.57,3.67-2.42,7.63-6.68,12.5-3.52,6.26,4.07,11.9,8.48,19.73,10.14,4.52,1,5.38,0,6-3.26.33-1.91-.33-4-.44-6-.16-2.93-.94-6.06-.19-8.75,1.43-5.12.48-11.38-3.57-14.86a7.67,7.67,0,0,0-4.75-1.93c-6,.25-9.93,4.58-14.31,8.08-2.9,2.32-6.57,5.72-9.59,5.43-6.27-.59-12.34-3.32-18.49-5.17-.15,0-.27-.21-.42-.28Z"/><path class="cls-8" d="M41.55,354.74c.05,14.82.07,29.64.15,44.46,0,5.64,1.14,6.73,6.73,6.73q162.15,0,324.3,0c4.64,0,6.48-2.4,6.93-8,.21-2.7,1.19-5.34,1.82-8q-1.44,9-2.87,18H41.76Z"/><path class="cls-9" d="M33.56,289.75l7.88-7.83c2.09-1,4.22-1.93,6.24-3.07,1.62-.92,3.09-2.1,5.36-3.68-.63,3.28-1,5.11-1.34,6.94l0-.05c-4.61,1.8-5.49,5.82-6,10.05l0-.05a14,14,0,0,0-2.45,2.54C40.94,298.73,37.7,301,32.81,300c-1-.21-2.5-.59-2.78-1.28s.53-2,.94-3C31.8,293.72,32.69,291.74,33.56,289.75Z"/><path class="cls-10" d="M387.24,293.1l-9.44-22.51,1.94-1.32c4.84,4.73,9.75,9.38,14.41,14.28.59.61.32,2.91-.37,3.71A69.56,69.56,0,0,1,387.24,293.1Z"/><path class="cls-11" d="M33.56,289.75c-.87,2-1.76,4-2.59,6-.41,1-1.24,2.22-.94,3s1.76,1.07,2.78,1.28c4.89,1,8.13-1.24,10.47-5.37a14,14,0,0,1,2.45-2.54l-4.85,10.88H23.7Z"/><path class="cls-8" d="M51.7,282.11,53,275.17c-2.27,1.58-3.74,2.76-5.36,3.68-2,1.14-4.15,2-6.24,3.07,6-5.41,12-10.74,19.14-14.51L62,268.87Z"/><path class="cls-8" d="M95.57,134.84q0,13.29-.07,26.59Q95.53,148.13,95.57,134.84Z"/><path class="cls-8" d="M45.7,292.11c.55-4.23,1.43-8.25,6-10.05Z"/><path class="cls-7" d="M147.42,224.51l.9.62Z"/><path class="cls-12" d="M27,410.61c1.58,5.4,6.37,3,10.25,3.33l-3.3-2.37.45-1.67,8.1,1.67c5.62-.54,11-1.48,16.34-1.48q151.49-.13,303-.07h54.31c9.4,0,10.6.81,14,9.35a6.42,6.42,0,0,0,1,1.51c-2,3.38-3.7,6.36-5.49,9.3-.39.65-1,1.54-1.58,1.65-4.63.81-9.3,2.06-13.95,2.07q-193.48.17-387-.13c-6.68,0-14.61-.24-18-8.93-1.68-4.35-.58-10.58,3.65-12.55,3.09-1.43,6.05-3.75,10-.77C20.32,412.6,23.75,411.05,27,410.61Zm22.33,9.16.84,2.5,6.27-1.06c-.78-1.29-1.65-3.71-2.32-3.66C52.43,417.68,50.87,419,49.28,419.77Zm-13.49,1.55L37,419.17c-1.35-.62-2.73-1.75-4-1.7-1.1,0-2.15,1.5-3.21,2.32.83,1,1.5,2.68,2.54,3S34.59,421.85,35.79,421.32Z"/><path class="cls-13" d="M129.38,317.92c6.74-13.33,17.24-23.05,30.13-30.08C183,275,208,269.47,234.8,273.78c4.86.78,9.74,1.51,14.6,2.26l6.19,2,0,0,23.88,12.17v0l8.05,6,0,0,11.94,11.4a.35.35,0,0,0,.33.43l9.8,12.15,0,0q6,12,12,24.07h-.05c.39,3,.66,5.94,1.19,8.87,2,11-.12,21.83-2,32.6-.68,3.77-2.69,6.45-7.42,6.48-14.61.09-29.21.82-43.82.82-22,0-43.93-.06-65.88-.75-23.93-.74-47.83-2.13-71.73-3.53a22.2,22.2,0,0,1-9.36-3.32c-5.07-3-5.3-8.43-5.73-13.59a101.33,101.33,0,0,1,3.2-33.57h0Zm183.91,66c.56-4.22,1.42-8.13,1.52-12.06.29-10.39,1.41-20.89-3.39-30.76-8.83-18.16-21.36-32.77-38.67-43.63-15.72-9.86-32.18-15.93-50.88-15.68-13.66.17-27.26.48-40.31,5.15-11.74,4.2-23.11,9.28-31.49,18.84-16,18.3-25,39.56-25.63,64.16-.17,6.95,3.23,11.25,10.43,11.49,34.91,1.19,69.82,2.52,104.74,3.24,17.59.37,35.21-.49,52.82-.73C299.34,383.87,306.26,384,313.29,384Z"/><path class="cls-11" d="M119.83,338.14a101.33,101.33,0,0,0-3.2,33.57c.43,5.16.66,10.61,5.73,13.59a22.2,22.2,0,0,0,9.36,3.32c23.9,1.4,47.8,2.79,71.73,3.53,22,.69,43.92.75,65.88.75,14.61,0,29.21-.73,43.82-.82,4.73,0,6.74-2.71,7.42-6.48,1.92-10.77,4-21.56,2-32.6-.53-2.93-.8-5.91-1.19-8.87.67.38,1.9.7,1.94,1.13.81,9.48,2.07,19,2,28.46-.05,5-1.9,10.26-4.12,14.82-1.2,2.45-4.69,4.24-7.54,5.28-2.35.86-5.27.11-7.93.2-20,.63-40.13,3.1-59.93,1.49-24.73-2-49.37-.56-74-1.58-10.2-.42-20.42-.94-30.55-2.09a100.19,100.19,0,0,1-19.74-4.37c-2.3-.76-4.73-3.92-5.37-6.42-2.19-8.66-4.43-17.34-.89-26.44,1.67-4.29,1.54-9.26,2.46-13.88C117.9,339.77,119.1,339,119.83,338.14Z"/><path class="cls-11" d="M279.44,290.21,255.56,278c6.73-1,11.92,2.5,17,6C275.07,285.78,277.16,288.13,279.44,290.21Z"/><path class="cls-11" d="M129.38,317.92l-9.6,20.23c-.42-3.85-.42-7.34,2.83-10.48,1.67-1.62,1.7-4.82,3-7C126.32,319.43,128.08,318.82,129.38,317.92Z"/><path class="cls-11" d="M321.47,344.14q-6-12-12-24.07c3.35,4.74,7.12,9.26,9.91,14.31C321,337.17,320.84,340.86,321.47,344.14Z"/><path class="cls-11" d="M299.41,307.53l-11.94-11.4C292.44,296.38,299.44,303.06,299.41,307.53Z"/><path class="cls-11" d="M309.54,320.11,299.74,308c1.5.7,3.59,1,4.4,2.19C306.28,313.24,311.19,315,309.54,320.11Z"/><path class="cls-11" d="M287.5,296.17l-8.05-6C284.18,289.43,286.18,292.34,287.5,296.17Z"/><path class="cls-11" d="M255.59,278.07l-6.19-2Z"/><path class="cls-14" d="M157.62,58l7-2a34.08,34.08,0,0,0,2.14,5.33c.66,1.1,2,2.48,3,2.53,6.22.25,12.46.26,18.68,0,1.27,0,2.48-1.38,3.73-2.13-1.4-.59-2.77-1.62-4.19-1.69-4.59-.22-9.2-.08-14.4-.08V54l4-2a18.3,18.3,0,0,0,.28,3.93c-.57.11-1,.08-1.13.25a5.65,5.65,0,0,0-.35,1.33,11.07,11.07,0,0,0,1.48-1.58c5.58.73,11.41,1.65,17.28,2,3.78.2,6.58.45,4.51,5.17,4.84,3.1,9,2.19,12.93-1.08h3c3.66,3.16,5,2.72,6-2l5,2c.34.67.67,1.33,1,2l-2,4c-5.44,4.81,3.47,3.06,2.63,5.87-.14.55-.6,1-.79,1.62-.44,1.33-.76,2.71-1.12,4.07,1.09-.66,2.52-1.08,3.22-2,2.06-2.78,3.41-1.38,5.06.41,2.73,3,6.28,2.91,9,.06l7,3-4,2h-3.57v1.55l3.58.45c-.93.67-1.83,1.4-2.81,2-1.3.76-3.85,1.54-3.79,2a13.26,13.26,0,0,0,2.18,5.6c.78,1.14,2.38,1.73,4,2.8-7.6,3.86-8.2,5.16-4.54,8.57v2l-4,4-2,1-3.28-4.86a4.57,4.57,0,0,0-1.5.42,6.88,6.88,0,0,0-1.22,1.44q-4.65-.66-4,4c-3.6,3.74-3.6,9.33,0,14l-3,2a30.81,30.81,0,0,0-3.87-2.82c-7.14-3.73-9.58-6.33-7.5-13.21.43-1.41-1.27-4.65-2.69-5.19-2.59-1-5.73-.81-8.6-.61-.84.06-1.56,1.84-2.34,2.83l-4-1h0c0-.67,0-1.34,0-2-.62-1.8-1.24-3.61-1.91-5.54l4.39-2.24c-4.14-4.15-7.29-1.14-10.48-.22V96l3.91-1.84c-.52-.94-1.1-2.71-1.56-2.68-3.8.23-7.81.18-11.29,1.48-2.28.85-1.33,8.3.94,11,0,1.34,0,2.68,0,4-.66.67-1.33,1.33-2,2-4.32,1.3-5.95,6.2-3,9l1,3,2,3,2,1v4c-.51,1.62-1.52,3.27-1.44,4.86.18,3.39.93,6.76,1.44,10.14v1c-3.76.18-6.91-.6-9.58-3.79-1.13-1.33-4.06-1.83-6-1.52-.81.14-1.31,3.3-1.61,5.14-.33,2.08,0,4.29-.48,6.3-.72,2.85-.34,4.86,2.64,5.87l3,3v3l-4.44-1.78-1.47.63c.64,1.72,1.28,3.43,1.91,5.15v4l-.62,2.47,1.09.46,1.53-2.93h2l1.8,3.81q1.11-1.91,2.2-3.81l7.79,3,.21,4c-3.18,1.8-3.08,3.29.17,5.09,1.53.84,2.57,2.58,3.83,3.91l.77,1.56,1.23-1.56c.69.57,1.62,1,2,1.73,1.6,3,3.45,2.88,5.8.74L189.62,186c3.9-2.65,5.54,0,7,3,.71,5.75,2.67,11.89-4.73,15.12a13.92,13.92,0,0,0,.22,2.42c3.63-1,7.43-1.41,10.4-3.17,4.81-2.84,9.73-3.4,15.12-3.53a36.41,36.41,0,0,0,11.68-2.68c3.92-1.47,9.61.51,14.05,5.54,3,3.38-.3,5.08-1.74,7.3a13.62,13.62,0,0,0-3.09,1.17c-5.33,3.72-10.6,7.53-15.9,11.3-.65.46-1.54,1.29-2,1.13-4.37-1.42-8.57-3.67-13-4.4-4.8-.79-9.14-5.14-14.71-1.78-2.45,1.49-5.78,1.51-8.87,2.24,1.54,4-1.61,8.26-4.82,8C172,227,164.8,226.54,157.62,226c-.25-4.8-.51-9.61-.72-13.65l6.7-4.83c-.92-1.16-1.62-3-2.78-3.35-4.75-1.45-5.09,2.56-5.53,4.21-4.7,1.38-8.35,2.68-12.11,3.44-2.3.47-4.77.09-8,.09,2.39-6.68,8.38-1.86,11.13-4.93-1.81-4.46-8-5.75-11-1.84-3.16,4.07-5.34,3.31-8.32.12-1-1-3.34-2-4.2-1.55-1.17.68-1.52,2.79-2.23,4.29-5.19-1.31-8.25-4.33-8-10-2.33-5.47,2.26-10.82.28-16.47-.47-1.36,2.52-3.64,2.57-5.53.26-10.69.19-21.39,0-32.09,0-1.23-1.31-2.45-2-3.67-1.26.89-2.85,1.55-3.7,2.73a7.31,7.31,0,0,0-1.08,4.22c.15,3.94.6,7.87.93,11.81l-4,1c-1.36-4.12-4-.76-6-1l-2-18,3-.54-2-2.46,5-6,5.18,2.65c.78-3,1.56-5.92,2.48-9.39h-6.72c1.55-3.19,2.25-6,4-7.86s4.82-3,8.23-4.89l-7.29-4c3.48-2.84,5.1-4.42,5.85-6.34.19-.49-2.42-2.06-3.75-3.14l5-6a22.52,22.52,0,0,0,2.74,2.78c.21.16,1.84-.94,1.78-1.21A21.39,21.39,0,0,0,119.62,91V88c5.11,2.75,7.78,1.53,11.16-4.59L127.62,78h0c.67-.67,1.34-1.33,2-2h0c.56.28,1.34.42,1.67.88,3.06,4.31,3.68,4.24,6.79-.13A44,44,0,0,1,142.62,72c.34,1.33.67,2.67,1,4l.54,3.7,1.68-.18c-.07-1.17-.15-2.35-.22-3.52V72c4.46-2,.79-4,0-6-.14-2.31.08-4,3.21-4.11,2.29-.09,4.53-1.22,6.79-1.89Zm8,55,3.5,1.65.74-6.31L165.62,111h-2c-1.32.3-3.64.37-3.78,1-.68,2.83.87,4.22,3.77,4v6c-1.3.58-3,.86-3.78,1.84-.46.56.49,2.27.8,3.46l3-1.3c4.13-3.41,4.13-7.78,0-10v-2ZM129.76,95.24c.73-1.13,1.6-1.88,1.56-2.59,0-.55-1.19-1.47-1.81-1.44a2.27,2.27,0,0,0-1.57,1.67C128,93.58,128.91,94.22,129.76,95.24Zm48.16,96.18c.74-.82,1.38-1.22,1.43-1.67s-.56-.89-.88-1.34c-.47.38-1.13.67-1.33,1.16C177,189.9,177.5,190.5,177.92,191.42Z"/><path class="cls-15" d="M197.62,111c.78-1,1.5-2.77,2.34-2.83,2.87-.2,6-.38,8.6.61,1.42.54,3.12,3.78,2.69,5.19-2.08,6.88.36,9.48,7.5,13.21a30.81,30.81,0,0,1,3.87,2.82c3.08,4.29,6.93,1.17,10.39,1.76l.37-2.09L225.63,128c-3.61-4.67-3.61-10.26,0-14l4,.62V110a6.88,6.88,0,0,1,1.22-1.44,4.57,4.57,0,0,1,1.5-.42l3.28,4.86c0,.34,0,.68,0,1l2,10c.54,1.43.67,3.4,1.7,4.2,7.74,6,13.1,4.67,18.27-4.23q0-6,0-11.94c.46-3.13-.88-4.46-4-4l-2-2,3-2,2-2,1.12-5.18-8.46-.8-.06,1.18,4.27,2.3c-1.84,1.66-3.7,1.74-5.09,2.6s-2.54,2.56-3.78,3.89h-3c-3.66-3.41-3.06-4.71,4.54-8.57-1.59-1.07-3.19-1.66-4-2.8A13.26,13.26,0,0,1,240,89c-.06-.51,2.49-1.29,3.79-2,1-.58,1.88-1.31,2.81-2V83l4-2,12.81,9.22-.63,1.44,2.61-1.1c3.6,2,6.22,4.12,9.22,5,6,1.82,12.16,2.88,18.21,4.44,4.79,1.23,9.44,3,14.27,4,1.88.38,4.07-.78,6.84-1.4l2.67,3.37c-.05,3.23-2.19,2.28-4,2l-3,1-2.63.76.31,1.06,2.32-.82h3c1.67,2.1,3.34,3.77,5,0,2.86-.35,4,.7,4.11,3.79.21,4.09,1.23,8.14,1.89,12.21-3-.2-4.06,1.35-4,4.21.09,6.27-.18,12.55.12,18.8.14,2.71-.14,6.21,3.9,7l-2,8c-1.11-1.55-2.64-2.94-3.27-4.67-1.4-3.82-4.43-3.68-7.35-3.2-1.52.25-2.86,1.66-4.28,2.54a54,54,0,0,0,4.83,5.68c1,.93,2.7,1.12,4.07,1.65.56,3.62,1.27,7.24,1.59,10.88.08,1-1,2.08-1.59,3.12-1.4-1.61-2.8-3.21-4.19-4.83s-2.46-3.11-3.87-4.47a2.62,2.62,0,0,0-2.16-.2c-.37.79-.66,2.43-.34,2.62,4.7,2.69,1.84,4.89-.24,7.33a4.73,4.73,0,0,0-1.12,3.13c.57,5.43-1.9,6.39-6.49,4.81a13.37,13.37,0,0,0-3.43-.38c-3.35-.2-6.18.55-6.09,4.64.09,3.76,2.06,5.43,6.08,5.48,3.29,0,6.57,1.2,9.85,1.87l-10,10-2,2c-.67,1.67-1.34,3.33-2,5a62.67,62.67,0,0,0-7.16-.94c-2.42-.05-4.89.73-7.29.55-3.73-.27-7.41-1.45-11.12-1.5s-6.3-.67-8.26-4.11c-.74-1.29-3.07-2.29-4.7-2.33-2.48-.06-5,.84-7.48,1.33h-2c1.44-2.22,4.72-3.92,1.74-7.3-4.44-5-10.13-7-14.05-5.54a36.41,36.41,0,0,1-11.68,2.68c-5.39.13-10.31.69-15.12,3.53-3,1.76-6.77,2.12-10.4,3.17a13.92,13.92,0,0,1-.22-2.42c7.4-3.23,5.44-9.37,4.73-15.12l10,7,.77,1.56,1.23-1.56h5l25-2c.6.26,1.3.87,1.78.73,3.38-1,6.73-2.16,10-3.47a21.17,21.17,0,0,0-.79-3.26h-3l-3-2c2.77-4.09,5.3-8.46,11.32-8.08.79.05,1.65-.75,2.46-1.2a38.8,38.8,0,0,1,4.9-2.66,25.8,25.8,0,0,1,4.82-.87c-.58-3-.7-5.54-1.59-7.73a20.79,20.79,0,0,0-3.82-5.51c-.84-1-2.37-1.28-3.27-2.2-9-9.17-19.06-17.11-31.29-20.77-8-2.39-17.25-3.19-24.88,1.83-3.29,2.17-6.15,3.43-9.88,3.28-.4,0-.82.37-1.57.74L193.3,145a27.23,27.23,0,0,0-4.31,2.72c-3.69,3.49-7.09,6.49-13.05,4.49-4-1.33-8.89,2.23-7.66,4.45,2,3.66-.46,4.21-2.66,5.3v-1l-3-3c-3-1-3.36-3-2.64-5.87.51-2,.15-4.22.48-6.3.3-1.84.8-5,1.61-5.14,1.91-.31,4.84.19,6,1.52,2.67,3.19,5.82,4,9.58,3.79a48.91,48.91,0,0,0,6.18,1.62c.38.06,1-1.64,1.53-2.52a6.8,6.8,0,0,0-2.46-.91,47.26,47.26,0,0,0-5.25.81c-.51-3.38-1.26-6.75-1.44-10.14-.08-1.59.93-3.24,1.44-4.86a24.39,24.39,0,0,1,4.45.11c8.25,1.67,14.68-3.11,16.41-10.21C199.15,117.16,198,114,197.62,111Zm55-23L250,89.7l2.64,1.3,2.78-1.27Zm28,14c-1.84,1.14-5.73-3.88-6,2-2.32,1.41-4.19,3.24-2.17,5.92.74,1,3.34,1.77,4.15,1.23,3.14-2.07,5.91-4.72,9.73-7.92Zm11.16,105.52c-4.58-4.05-8.6-4.42-13-1.68-.85.53-2.64.88-3.14.41-4.48-4.21-9.88-1.67-14.82-2.09-1.21-.1-2.59,1.76-3.89,2.72,1.38,1,2.65,2.71,4.18,3,3.39.61,6.91.41,10.35.75,2.07.21,4.23,1.48,6.1,1.09C282.18,210.74,286.62,209.1,291.78,207.52ZM208.9,134l.21-1.66L202,131.28c-.1.7-.19,1.41-.29,2.12Zm50.22,2a10.59,10.59,0,0,0-2.7-.77c-.52,0-1,.51-1.52.79a5.81,5.81,0,0,0,1.22,1.65C256.33,137.88,257.07,137.24,259.12,136.07Z"/><path class="cls-15" d="M109.62,159c-.33-3.94-.78-7.87-.93-11.81a7.31,7.31,0,0,1,1.08-4.22c.85-1.18,2.44-1.84,3.7-2.73.71,1.22,2,2.44,2,3.67.17,10.7.24,21.4,0,32.09,0,1.89-3,4.17-2.57,5.53,2,5.65-2.61,11-.28,16.47-5.27-1.55-7.48-6.15-5.68-11.1.69-1.9.54-4.11.81-6.43l-4.45,1.81c-.56-1.43-1.53-2.85-1.6-4.3-.2-4.65-.08-9.32-.08-14l-2-2v-3c2,.24,4.64-3.12,6,1v4c.67.66,1.34,1.33,2,2l.66,2.55,1.34-.05Z"/><path class="cls-15" d="M221.62,60c-1,4.72-2.34,5.16-6,2l-1.26-1.82L212.62,62c-3.93,3.27-8.09,4.18-12.93,1.08,2.07-4.72-.73-5-4.51-5.17-5.87-.32-11.7-1.24-17.56-1.91V52c11.45-.67,22.9-1.48,34.35-2,6.53-.27,6.56,0,5.68,6.07C217.2,59.29,218.69,60.35,221.62,60Z"/><path class="cls-15" d="M120.62,208c.71-1.5,1.06-3.61,2.23-4.29.86-.49,3.24.52,4.2,1.55,3,3.19,5.16,4,8.32-.12,3-3.91,9.18-2.62,11,1.84-2.75,3.07-8.74-1.75-11.13,4.93,3.18,0,5.65.38,8-.09,3.76-.76,7.41-2.06,12.11-3.44.44-1.65.78-5.66,5.53-4.21,1.16.35,1.86,2.19,2.78,3.35l-6.7,4.83c.21,4,.47,8.85.72,13.65-4.28.62-5.81-1.28-6.24-5.52-.17-1.63-2.83-4-4.66-4.3-6.39-1.19-12.92-1.66-19.63-2.43.46-3.89,1.25-8.32-4.69-4.06C122.27,209.78,121.23,208.59,120.62,208Z"/><path class="cls-14" d="M303.62,200c-3.28-.67-6.56-1.84-9.85-1.87-4,0-6-1.72-6.08-5.48-.09-4.09,2.74-4.84,6.09-4.64a13.37,13.37,0,0,1,3.43.38c4.59,1.58,7.06.62,6.49-4.81a4.73,4.73,0,0,1,1.12-3.13c2.08-2.44,4.94-4.64.24-7.33-.32-.19,0-1.83.34-2.62a2.62,2.62,0,0,1,2.16.2c1.41,1.36,2.58,3,3.87,4.47s2.79,3.22,4.19,4.83c-1.32,2-2.22,4.71-4.07,5.8-2.63,1.53-4.39,2-2.45,5.72C311.29,195.68,308.51,199.44,303.62,200Z"/><path class="cls-14" d="M243.62,210c2.5-.49,5-1.39,7.48-1.33,1.63,0,4,1,4.7,2.33,2,3.44,4.63,4.07,8.26,4.11s7.39,1.23,11.12,1.5c2.4.18,4.87-.6,7.29-.55a62.67,62.67,0,0,1,7.16.94c-2.54,1.81-7.07.3-8,4.8l-4.8.29c-2,0-3.94,0-5.9-.11-5.24-.39-11,1.71-15.41-2.89l0,0c-.62-1-1.25-2-1.88-3.06l0,0-2-2,0,0c-1.42-.66-2.86-1.28-4.26-2S244.87,210.67,243.62,210Z"/><path class="cls-15" d="M111.62,99c1.33,1.08,3.94,2.65,3.75,3.14-.75,1.92-2.37,3.5-5.85,6.34l7.29,4c-3.41,1.94-6.32,2.93-8.23,4.89s-2.47,4.67-4,7.86h6.72c-.92,3.47-1.7,6.43-2.48,9.39L103.62,132a54.82,54.82,0,0,1-1.36-6.5c-.22-2.36-.72-5.1.2-7.08,2.27-4.87,5.16-9.35,5.49-15C108.05,101.86,110.34,100.46,111.62,99Z"/><path class="cls-14" d="M323.62,156c-4-.78-3.76-4.28-3.9-7-.3-6.25,0-12.53-.12-18.8,0-2.86,1-4.41,4-4.21.68,3.79.44,8.11,2.25,11.24,3.21,5.54.09,9.86-1.15,14.64C324.37,153.25,324,154.63,323.62,156Z"/><path class="cls-15" d="M173.62,54v6c5.2,0,9.81-.14,14.4.08,1.42.07,2.79,1.1,4.19,1.69-1.25.75-2.46,2.09-3.73,2.13-6.22.22-12.46.21-18.68,0-1.07,0-2.38-1.43-3-2.53A34.08,34.08,0,0,1,164.62,56Z"/><path class="cls-15" d="M243.63,78c-2.72,2.85-6.27,2.89-9-.06-1.65-1.79-3-3.19-5.06-.41-.7,1-2.13,1.37-3.22,2,.36-1.36.68-2.74,1.12-4.07.19-.58.65-1.07.79-1.62.84-2.81-8.07-1.06-2.63-5.87.49,0,1.13.16,1.46-.09,5.15-3.87,7.33-.21,9.89,3.53.89,1.3,3.06,1.73,4.64,2.56l2,4Z"/><path class="cls-14" d="M315.62,166c-1.37-.53-3.05-.72-4.07-1.65a54,54,0,0,1-4.83-5.68c1.42-.88,2.76-2.29,4.28-2.54,2.92-.48,5.95-.62,7.35,3.2.63,1.73,2.16,3.12,3.27,4.67Z"/><path class="cls-15" d="M145.62,66c.79,2,4.46,4,0,6h-3a44,44,0,0,0-4.53,4.75c-3.11,4.37-3.73,4.44-6.79.13-.33-.46-1.11-.6-1.67-.88a12.26,12.26,0,0,1,1.81-1.92c1.83-1.24,3.7-2.43,5.63-3.51C139.89,69,142.77,67.52,145.62,66Z"/><path class="cls-15" d="M127.62,78l3.16,5.41c-3.38,6.12-6,7.34-11.16,4.59-.84-5.55,3.84-3.38,5.37-4Z"/><path class="cls-15" d="M119.62,91a21.39,21.39,0,0,1,1.52,3.57c.06.27-1.57,1.37-1.78,1.21A22.52,22.52,0,0,1,116.62,93Z"/><path class="cls-14" d="M317.62,110c-1.66,3.77-3.33,2.1-5,0v-2c1.81.28,3.95,1.23,4-2C317,107.33,317.29,108.67,317.62,110Z"/><path class="cls-14" d="M243.63,78l-2-4Z"/><path class="cls-15" d="M98.62,138l2,2.46-3,.54C98,140,98.29,139,98.62,138Z"/><path class="cls-14" d="M291.63,212l2-2Z"/><path class="cls-15" d="M227.62,64c-.33-.67-.66-1.33-1-2l2.5.74Z"/><path class="cls-14" d="M99.63,162l2,2Z"/><path class="cls-15" d="M157.62,58l-2,2Z"/><path class="cls-15" d="M129.62,76c-.66.67-1.33,1.33-2,2C128.29,77.33,129,76.67,129.62,76Z"/><path class="cls-16" d="M197.07,221.31l5.94,2.86c.15.07.27.23.42.28,6.15,1.85,12.22,4.58,18.49,5.17,3,.29,6.69-3.11,9.59-5.43,4.38-3.5,8.26-7.83,14.31-8.08a7.67,7.67,0,0,1,4.75,1.93c4.05,3.48,5,9.74,3.57,14.86-.75,2.69,0,5.82.19,8.75.11,2,.77,4.06.44,6-.57,3.26-1.43,4.22-6,3.26-7.83-1.66-13.47-6.07-19.73-10.14-4.87-3.16-8.83,1.1-12.5,3.52-5.84,3.87-11.27,8.35-16.87,12.57-3.12,2.37-6.06,1.42-7.48-1.6s-1.84-6.84-2.6-10.31c-.63-2.84-.87-5.8-1.74-8.56C185.77,229.6,190.33,222,197.07,221.31Z"/><path class="cls-6" d="M255.52,219.09c4.45,4.6,10.17,2.5,15.41,2.89,2,.15,3.93.08,5.9.11l-20.67,2.57C255.88,222.19,255.7,220.64,255.52,219.09Z"/><path class="cls-6" d="M253.66,216c.63,1,1.26,2,1.88,3.06C254.92,218,254.29,217,253.66,216Z"/><path class="cls-6" d="M251.66,214l2,2Z"/><path class="cls-4" d="M49.28,419.77c1.59-.82,3.15-2.09,4.79-2.22.67-.05,1.54,2.37,2.32,3.66l-6.27,1.06Z"/><path class="cls-4" d="M35.79,421.32c-1.2.53-2.56,1.69-3.54,1.43s-1.71-1.91-2.54-3c1.06-.82,2.11-2.27,3.21-2.32,1.32-.05,2.7,1.08,4,1.7Z"/><path class="cls-17" d="M313.29,384c-7,0-14-.08-20.86,0-17.61.24-35.23,1.1-52.82.73-34.92-.72-69.83-2.05-104.74-3.24-7.2-.24-10.6-4.54-10.43-11.49.58-24.6,9.58-45.86,25.63-64.16,8.38-9.56,19.75-14.64,31.49-18.84,13.05-4.67,26.65-5,40.31-5.15,18.7-.25,35.16,5.82,50.88,15.68,17.31,10.86,29.84,25.47,38.67,43.63,4.8,9.87,3.68,20.37,3.39,30.76C314.71,375.82,313.85,379.73,313.29,384Z"/><path class="cls-6" d="M206.62,196l-10-7c-1.46-3-3.1-5.65-7-3-7.18-.28-2.12-4.77-2.49-8.14A46.44,46.44,0,0,1,182,179a32.47,32.47,0,0,1-4.41,0l-.21-4-7.79-3-4-4v-6c2.2-1.09,4.67-1.64,2.66-5.3-1.23-2.22,3.68-5.78,7.66-4.45,6,2,9.36-1,13.05-4.49A27.23,27.23,0,0,1,193.3,145l-2.48-2.21c.75-.37,1.17-.76,1.57-.74,3.73.15,6.59-1.11,9.88-3.28,7.63-5,16.91-4.22,24.88-1.83,12.23,3.66,22.33,11.6,31.29,20.77.9.92,2.43,1.24,3.27,2.2a20.79,20.79,0,0,1,3.82,5.51c.89,2.19,1,4.69,1.59,7.73a25.8,25.8,0,0,0-4.82.87,38.8,38.8,0,0,0-4.9,2.66c-.81.45-1.67,1.25-2.46,1.2-6-.38-8.55,4-11.32,8.08q-2.49,4-5,8l-25,2c-.59-.64-1.36-1.91-1.73-1.8-.86.25-1.53,1.16-2.28,1.8h-3Zm6.54-57.32c-3,1.31-8.65,3.2-13.73,6-8.53,4.75-16.77,10-25,15.24-1.76,1.11-4.39,3-4.32,4.38A8.08,8.08,0,0,0,173.8,170c3.29,1.82,7.13,2.61,10.71,3.91A11.32,11.32,0,0,1,188,175.6c2.66,2.25,5.1,4.75,7.74,7,7.43,6.38,16.53,8.32,25.88,9,8.5.61,14.33-4.31,20.28-9.9,4.75-4.46,11.17-7.14,16.79-10.69,1.51-1,3.93-2.23,3.94-3.36a7.66,7.66,0,0,0-2.79-5.13c-3.52-2.86-7.68-4.95-11.15-7.87C239.1,146.61,229,139.84,213.16,138.68Z"/><path class="cls-15" d="M177.62,104c-2.27-2.74-3.22-10.19-.94-11,3.48-1.3,7.49-1.25,11.29-1.48.46,0,1,1.74,1.56,2.68L185.62,96l-4.66.24c-.17.63-.35,1.26-.52,1.88l5.18,1.88c3.19-.92,6.34-3.93,10.48.22l-4.39,2.24c.67,1.93,1.29,3.74,1.91,5.54l-2,0-10-3Z"/><path class="cls-10" d="M251.61,106l2,2,4,4q0,6,0,11.94l-4.08,0a25.81,25.81,0,0,0,1.64-3.06,8.66,8.66,0,0,0-4.74-11.12c-4.36-1.88-9.08.16-11,4.75-1.73,4.06,0,9.56,4.36,10.62,3,.73,6.52-.74,9.81-1.23-3.52,6.64-6.33,7.32-12,3-1.28-1-2.6-1.9-3.9-2.85-.66-3.32-1.33-6.64-2-10l2-2,4-4,4-2Z"/><path class="cls-10" d="M181.64,105l10,3,2,2h0c0,3.66.67,7.48-.19,10.92a11.46,11.46,0,0,1-5.13,6.59c-1.51.82-4.42-.92-6.7-1.52a27.55,27.55,0,0,0,4-.12,8.66,8.66,0,0,0,7-8.44,8.54,8.54,0,0,0-7.07-8.35c-4.55-.62-7.93,1.31-9.47,5.51-1.86,5.08,1,8.51,4.94,11.23l-3.38.21-2-1-2-3c-.33-1-.67-2-1-3l3-9c.67-.66,1.34-1.32,2-2C179.75,108.06,181.93,108.18,181.64,105Z"/><path class="cls-6" d="M181.59,126c2.28.6,5.19,2.34,6.7,1.52a11.46,11.46,0,0,0,5.13-6.59c.86-3.44.2-7.26.19-10.92l4,1c.35,3,1.53,6.16.86,8.9-1.73,7.1-8.16,11.88-16.41,10.21a24.39,24.39,0,0,0-4.45-.11v-4l3.38-.21.33,0Z"/><path class="cls-15" d="M177.62,179a32.47,32.47,0,0,0,4.41,0,46.44,46.44,0,0,0,5.1-1.16c.37,3.37-4.69,7.86,2.49,8.14l1.81,4.47c-2.35,2.14-4.2,2.27-5.8-.74-.39-.73-1.32-1.16-2-1.73h-2c-1.26-1.33-2.3-3.07-3.83-3.91C174.54,182.29,174.44,180.8,177.62,179Z"/><path class="cls-6" d="M225.63,128l7.75,1.67-.37,2.09c-3.46-.59-7.31,2.53-10.39-1.76Z"/><path class="cls-6" d="M109.62,159v9.5l-1.34.05-.66-2.55c-.66-.67-1.33-1.34-2-2v-4Z"/><path class="cls-6" d="M177.62,145a47.26,47.26,0,0,1,5.25-.81,6.8,6.8,0,0,1,2.46.91c-.51.88-1.15,2.58-1.53,2.52a48.91,48.91,0,0,1-6.18-1.62Z"/><path class="cls-15" d="M165.62,168l4,4q-1.1,1.91-2.2,3.81l-1.8-3.81Z"/><path class="cls-6" d="M163.62,122v-6h0c4.13,2.22,4.13,6.59,0,10Z"/><path class="cls-15" d="M165.62,164v2l-2,2h-2c-.63-1.72-1.27-3.43-1.91-5.15l1.47-.63Z"/><path class="cls-15" d="M163.62,114v2h0c-2.9.17-4.45-1.22-3.77-4,.14-.58,2.46-.65,3.78-1C163.63,112,163.62,113,163.62,114Z"/><path class="cls-15" d="M163.62,122v4l-3,1.3c-.31-1.19-1.26-2.9-.8-3.46C160.65,122.86,162.32,122.58,163.62,122Z"/><path class="cls-6" d="M175.63,110l-3,9C169.68,116.2,171.31,111.3,175.63,110Z"/><path class="cls-15" d="M165.62,111l4.24-2.66-.74,6.31-3.5-1.65Z"/><path class="cls-6" d="M185.62,100l-5.18-1.88c.17-.62.35-1.25.52-1.88l4.66-.24Z"/><path class="cls-6" d="M229.62,110v4.62l-4-.62Q225,109.34,229.62,110Z"/><path class="cls-6" d="M161.62,168h4v4h-4Z"/><path class="cls-6" d="M181.64,105c.29,3.17-1.89,3-4,3,0-1.33,0-2.67,0-4Z"/><path class="cls-15" d="M129.76,95.24c-.85-1-1.78-1.66-1.82-2.36a2.27,2.27,0,0,1,1.57-1.67c.62,0,1.79.89,1.81,1.44C131.36,93.36,130.49,94.11,129.76,95.24Z"/><path class="cls-6" d="M142.62,72h3v4h-2C143.29,74.67,143,73.33,142.62,72Z"/><path class="cls-15" d="M143.62,76h2c.07,1.17.15,2.35.22,3.52l-1.68.18Z"/><path class="cls-6" d="M246.62,83v2L243,84.55V83Z"/><path class="cls-6" d="M162.62,158l3,3Z"/><path class="cls-6" d="M245.63,106l-4,2v-2h4Z"/><path class="cls-15" d="M177.92,191.42c-.42-.92-.92-1.52-.78-1.85.2-.49.86-.78,1.33-1.16.32.45.92.93.88,1.34S178.66,190.6,177.92,191.42Z"/><path class="cls-15" d="M161.62,172h2l-1.53,2.93-1.09-.46Z"/><path class="cls-6" d="M212.62,62l1.74-1.82L215.62,62Z"/><path class="cls-6" d="M173.63,122l2,3Z"/><path class="cls-6" d="M165.62,111v2l-2,1c0-1,0-2,0-3Z"/><path class="cls-6" d="M237.61,112l-2,2c0-.35,0-.69,0-1Z"/><path class="cls-6" d="M193.61,110l-2-2,2,0C193.62,108.67,193.61,109.34,193.61,110Z"/><path class="cls-6" d="M181.62,188h2l-1.23,1.56Z"/><path class="cls-6" d="M178.18,55.89l-1.76,1.63a5.65,5.65,0,0,1,.35-1.33C176.86,56,177.33,56.05,178.18,55.89Z"/><path class="cls-14" d="M291.78,207.52c-5.16,1.58-9.6,3.22-14.19,4.19-1.87.39-4-.88-6.1-1.09-3.44-.34-7-.14-10.35-.75-1.53-.28-2.8-2-4.18-3,1.3-1,2.68-2.82,3.89-2.72,4.94.42,10.34-2.12,14.82,2.09.5.47,2.29.12,3.14-.41C283.18,203.1,287.2,203.47,291.78,207.52Z"/><path class="cls-14" d="M280.62,102l5.71,1.23c-3.82,3.2-6.59,5.85-9.73,7.92-.81.54-3.41-.26-4.15-1.23-2-2.68-.15-4.51,2.17-5.92Z"/><path class="cls-14" d="M245.63,106h-1c1.24-1.33,2.29-3,3.78-3.89s3.25-.94,5.09-2.6l-4.27-2.3.06-1.18,8.46.8L256.62,102l-2,2-3,2Z"/><path class="cls-6" d="M237.63,124c1.3,1,2.62,1.87,3.9,2.85,5.7,4.37,8.51,3.69,12-3l0,0,4.08,0c-5.17,8.9-10.53,10.22-18.27,4.23C238.3,127.39,238.17,125.42,237.63,124Z"/><path class="cls-14" d="M238.62,194q2.5-4,5-8l3,2c0,.59,0,1.19,0,1.78l3-1.78a21.17,21.17,0,0,1,.79,3.26c-3.28,1.31-6.63,2.44-10,3.47C239.92,194.87,239.22,194.26,238.62,194Z"/><path class="cls-6" d="M208.9,134l-7.15-.62c.1-.71.19-1.42.29-2.12l7.07,1.08Z"/><path class="cls-6" d="M280.62,102l-6,2C274.89,98.12,278.78,103.14,280.62,102Z"/><path class="cls-6" d="M257.61,112l-4-4C256.73,107.56,258.07,108.89,257.61,112Z"/><path class="cls-14" d="M252.62,88l2.78,1.73L252.62,91Z"/><path class="cls-6" d="M259.12,136.07c-2.05,1.17-2.79,1.81-3,1.67a5.81,5.81,0,0,1-1.22-1.65c.5-.28,1-.76,1.52-.79A10.59,10.59,0,0,1,259.12,136.07Z"/><path class="cls-14" d="M209.62,196c.75-.64,1.42-1.55,2.28-1.8.37-.11,1.14,1.16,1.73,1.8Z"/><path class="cls-6" d="M249.62,188l-3,1.78c0-.59,0-1.19,0-1.78Z"/><path class="cls-6" d="M252.62,88v3L250,89.7Z"/><path class="cls-6" d="M312.62,108v2h-3v-1Z"/><path class="cls-14" d="M309.62,109v1l-2.32.82-.31-1.06Z"/><path class="cls-14" d="M206.62,196h2l-1.23,1.56Z"/><path class="cls-6" d="M254.63,104l2-2Z"/><path class="cls-14" d="M105.62,164c.67.66,1.34,1.33,2,2C107,165.33,106.29,164.66,105.62,164Z"/><path class="cls-18" d="M213.16,138.68c15.88,1.16,25.94,7.93,35.49,16,3.47,2.92,7.63,5,11.15,7.87a7.66,7.66,0,0,1,2.79,5.13c0,1.13-2.43,2.41-3.94,3.36-5.62,3.55-12,6.23-16.79,10.69-6,5.59-11.78,10.51-20.28,9.9-9.35-.67-18.45-2.61-25.88-9-2.64-2.27-5.08-4.77-7.74-7a11.32,11.32,0,0,0-3.45-1.74c-3.58-1.3-7.42-2.09-10.71-3.91a8.08,8.08,0,0,1-3.73-5.63c-.07-1.41,2.56-3.27,4.32-4.38,8.27-5.21,16.51-10.49,25-15.24C204.51,141.88,210.12,140,213.16,138.68Zm-14.24,34-1.54-.18,1.06.71c12.32,13.26,30,13.19,39-.53Zm-10.82-10a244.61,244.61,0,0,0,56.23-.2,107.16,107.16,0,0,0-19-12.66c-5.79-3-12.25-3.61-18.11-.08C200.92,153.56,195,158,188.1,162.68Z"/><path class="cls-14" d="M165.62,168h-2l2-2Z"/><path class="cls-18" d="M253.56,123.89c-3.29.49-6.82,2-9.81,1.23-4.34-1.06-6.09-6.56-4.36-10.62,2-4.59,6.67-6.63,11-4.75a8.66,8.66,0,0,1,4.74,11.12,25.81,25.81,0,0,1-1.64,3.06Z"/><path class="cls-18" d="M181.59,126l-.26-.21-.33,0c-4-2.72-6.8-6.15-4.94-11.23,1.54-4.2,4.92-6.13,9.47-5.51a8.54,8.54,0,0,1,7.07,8.35,8.66,8.66,0,0,1-7,8.44A27.55,27.55,0,0,1,181.59,126Z"/><path class="cls-19" d="M188.1,162.68c6.87-4.68,12.82-9.12,19.15-12.94,5.86-3.53,12.32-2.89,18.11.08a107.16,107.16,0,0,1,19,12.66A244.61,244.61,0,0,1,188.1,162.68Z"/><path class="cls-10" d="M198.93,172.68h38.49c-9,13.72-26.66,13.79-39,.53C198.6,173,198.76,172.85,198.93,172.68Z"/><path class="cls-10" d="M198.44,173.21l-1.06-.71,1.55.18C198.76,172.85,198.6,173,198.44,173.21Z"/></g></g></svg>